<svg id="SvgjsSvg1043" width="100%" height="100%" xmlns="http://www.w3.org/2000/svg" version="1.1"
    xlink="http://www.w3.org/1999/xlink" xmlns:svgjs="http://svgjs.com/svgjs"
    preserveAspectRatio="xMidYMid meet"
    viewBox="0 1.0811983486291865e-7 165.15106201171875 146.99998474121094" overflow="visible">
    <defs id="SvgjsDefs1044"></defs>
    <g id="SvgjsG1045" transform="scale(0.9069749537001393)" opacity="1">
        <g id="SvgjsG1046" class="iI21_ergf"
            transform="translate(38.264255240155535, -5.177069057652193) scale(1.0354138115304385)"
            light-content="false" non-strokable="false" fill="#122d78">
            <path
                d="M50.98 5c-2.521 0-5 .21-7.411.63C22.84 9.16 7.01 27.26 7.01 48.97c0 14.129 6.7 26.73 17.1 34.78-9.84.98-16.58 2.98-16.58 5.3 0 3.29 13.55 5.95 30.26 5.95 15.96 0 30.71-2.94 30.39-5.59A44.156 44.156 0 0 0 85.85 75.7a43.699 43.699 0 0 0 9.091-26.73C94.94 24.73 75.21 5 50.98 5zm20.17 77.08c-2.79.6-5.68.92-8.65.92-22.64 0-41-18.36-41-41 0-10 3.58-19.17 9.54-26.29a38.47 38.47 0 0 1 19.94-5.54c21.39 0 38.789 17.4 38.789 38.8.001 14-7.459 26.3-18.619 33.11z"></path>
        </g>
        <g id="SvgjsG1047" class="text"
            transform="translate(91.12000274658203, 161.45724349550315) scale(1)"
            light-content="false" fill="#3b3b3b">
            <path
                d="M-71.93 -42.66L-86.58 -42.66L-91.12 -42.66L-91.12 -37.5L-86.58 -36.62L-86.58 -6.01L-91.12 -5.13L-91.12 0L-71.93 0C-66.71 0 -62.42 -1.66 -59.04 -4.97C-55.66 -8.28 -53.97 -12.55 -53.97 -17.78L-53.97 -24.84C-53.97 -30.06 -55.66 -34.33 -59.04 -37.66C-62.42 -40.99 -66.71 -42.66 -71.93 -42.66ZM-78.02 -36.06L-72.37 -36.06C-69.3 -36.06 -66.9 -35.03 -65.16 -32.96C-63.42 -30.89 -62.55 -28.2 -62.55 -24.9L-62.55 -17.78C-62.55 -14.44 -63.42 -11.74 -65.16 -9.67C-66.9 -7.6 -69.3 -6.56 -72.37 -6.56L-78.02 -6.56Z M-4.79 -21.01L-4.79 -21.65C-4.79 -27.86 -6.58 -33.02 -10.16 -37.12C-13.75 -41.22 -18.43 -43.27 -24.21 -43.27C-29.97 -43.27 -34.62 -41.22 -38.16 -37.12C-41.69 -33.02 -43.46 -27.86 -43.46 -21.65L-43.46 -21.01C-43.46 -14.76 -41.69 -9.59 -38.14 -5.51C-34.6 -1.43 -29.94 0.62 -24.18 0.62C-18.4 0.62 -13.72 -1.43 -10.15 -5.51C-6.57 -9.59 -4.79 -14.76 -4.79 -21.01ZM-13.31 -21.71L-13.31 -21.01C-13.31 -16.51 -14.22 -12.9 -16.04 -10.15C-17.85 -7.41 -20.57 -6.04 -24.18 -6.04C-27.76 -6.04 -30.44 -7.41 -32.22 -10.15C-34.01 -12.9 -34.9 -16.51 -34.9 -21.01L-34.9 -21.71C-34.9 -26.16 -34.02 -29.76 -32.25 -32.49C-30.49 -35.22 -27.8 -36.59 -24.21 -36.59C-20.62 -36.59 -17.9 -35.21 -16.07 -32.46C-14.23 -29.71 -13.31 -26.12 -13.31 -21.71Z M23.83 -42.66L9.18 -42.66L4.64 -42.66L4.64 -37.5L9.18 -36.62L9.18 -6.01L4.64 -5.13L4.64 0L23.83 0C29.04 0 33.34 -1.66 36.72 -4.97C40.1 -8.28 41.79 -12.55 41.79 -17.78L41.79 -24.84C41.79 -30.06 40.1 -34.33 36.72 -37.66C33.34 -40.99 29.04 -42.66 23.83 -42.66ZM17.74 -36.06L23.39 -36.06C26.46 -36.06 28.86 -35.03 30.6 -32.96C32.34 -30.89 33.21 -28.2 33.21 -24.9L33.21 -17.78C33.21 -14.44 32.34 -11.74 30.6 -9.67C28.86 -7.6 26.46 -6.56 23.39 -6.56L17.74 -6.56Z M90.97 -21.01L90.97 -21.65C90.97 -27.86 89.18 -33.02 85.6 -37.12C82.01 -41.22 77.33 -43.27 71.55 -43.27C65.79 -43.27 61.14 -41.22 57.6 -37.12C54.07 -33.02 52.3 -27.86 52.3 -21.65L52.3 -21.01C52.3 -14.76 54.07 -9.59 57.62 -5.51C61.16 -1.43 65.82 0.62 71.58 0.62C77.36 0.62 82.04 -1.43 85.61 -5.51C89.19 -9.59 90.97 -14.76 90.97 -21.01ZM82.45 -21.71L82.45 -21.01C82.45 -16.51 81.54 -12.9 79.72 -10.15C77.91 -7.41 75.19 -6.04 71.58 -6.04C68 -6.04 65.32 -7.41 63.54 -10.15C61.75 -12.9 60.86 -16.51 60.86 -21.01L60.86 -21.71C60.86 -26.16 61.74 -29.76 63.51 -32.49C65.27 -35.22 67.96 -36.59 71.55 -36.59C75.14 -36.59 77.86 -35.21 79.69 -32.46C81.53 -29.71 82.45 -26.12 82.45 -21.71Z"></path>
        </g>
    </g>
</svg>